# xmcd CD database file
#
# Track frame offsets:
#	150
#	22191
#	43754
#	65480
#	86471
#	115054
#	134378
#	155789
#	171085
#	186066
#	205508
#	226202
#	245501
#	266314
#
# Disc length: 3827 seconds
#
# Revision: 1
# Processed by: cddbd v1.4PL0 Copyright (c) Steve Scherf et al.
# Submitted via: CDex 1.40Release
#
DISCID=ba0ef10e
DTITLE=Various Artist - LOVE STORIES 1 (Disk 1)
DYEAR=2003
DGENRE=
TTITLE0=Love Story wa Totuzen ni
TTITLE1=SAY YES
TTITLE2=LA LA LA LOVE SONG
TTITLE3=Kimiga Irudakede
TTITLE4=CAN YOU CELEBRATE?
TTITLE5=Hello,my friend
TTITLE6=Saboten no Hana
TTITLE7=Sasurai
TTITLE8=KNOCKIN'ON YOUR DOOR
TTITLE9=GLORIA
TTITLE10=How7RE you doing,Guys?
TTITLE11=Dakisimete TONIGHT
TTITLE12=You're the Only
TTITLE13=Always
EXTD=YEAR: 2003
EXTT0=
EXTT1=
EXTT2=
EXTT3=
EXTT4=
EXTT5=
EXTT6=
EXTT7=
EXTT8=
EXTT9=
EXTT10=
EXTT11=
EXTT12=
EXTT13=
PLAYORDER=
